<svg width="1454" height="1454" viewBox="0 0 1454 1454" fill="none" xmlns="http://www.w3.org/2000/svg">
<circle cx="727" cy="727" r="726.185" fill="black"/>
<path d="M569.77 1199.03C553.312 1193.75 536.36 1176.4 532.437 1160.82C528.806 1146.4 530.761 1132.68 538.302 1119.56C544.393 1108.97 550.395 1104.16 562.839 1099.89L570.674 1097.22L563.402 1106.27C543.58 1130.94 553.21 1150.04 581.832 1142.84C595.347 1139.43 606.164 1134.02 628.962 1119.27C654.351 1102.84 669.821 1097.09 688.484 1097.14C698.895 1097.14 706.848 1098.65 712.299 1101.55C720.369 1105.85 720.625 1105.83 730.337 1100.27C737.657 1096.08 743.901 1094.63 754.621 1094.63C771.77 1094.62 785.024 1100.18 815.199 1120.05C838.989 1135.72 851.877 1141.83 865.918 1144.07C887.171 1147.47 895.298 1130.47 881.76 1110.94C878.275 1105.91 874.485 1101.79 873.343 1101.79C872.207 1101.79 871.27 1100.77 871.27 1099.52C871.27 1096.85 884.299 1100.91 892.412 1106.14C900.348 1111.26 909.489 1128.09 911.231 1140.79C914.659 1165.81 896.815 1191.39 870.483 1199.21C839.339 1208.46 786.93 1199.75 736.152 1176.89L721.128 1170.13L699.806 1179.32C663.47 1194.98 640.202 1200.76 609.124 1201.83C588.515 1202.55 578.485 1201.83 569.776 1199.05L569.77 1199.03ZM535.212 998.157C503.789 988.201 474.108 960.582 460.78 928.892C454.815 914.715 454.082 910.045 454.039 885.929V858.872H447.691C439.629 858.872 431.843 852.342 429.846 843.902C428.596 838.65 429.846 835.906 435.57 830.074L442.845 822.797H720.486C997.726 822.797 998.138 822.802 1004.46 827.782C1016.73 837.431 1010.14 858.872 994.911 858.872C990.349 858.872 989.014 859.837 990.014 862.451C993.772 872.243 994.065 890.312 990.725 906.176C981.118 951.782 949.363 986.349 905.147 999.339C886.652 1004.77 853.999 1004.36 834.888 998.459C797.634 986.946 769.657 959.089 756.604 920.505C749.926 900.769 744.041 893.525 731.67 889.818C713.763 884.455 696.643 895.662 689.524 917.406C682.383 939.233 673.858 953.362 658.69 968.534C634.318 992.906 608.289 1003.27 572.049 1003.05C557.326 1003.05 545.374 1001.37 535.258 998.167L535.212 998.157ZM607.832 961.434C635.661 948.694 656.266 920.093 658.951 890.479C660.229 876.248 660.058 875.666 651.772 867.377L643.268 858.872H573.321H503.372L495.518 865.903C488.144 872.501 487.678 873.871 487.874 888.281C488.355 923.075 517.294 957.989 553.164 967.039C567.759 970.72 593.256 968.117 607.832 961.434V961.434ZM906.376 961.149C935.001 948.045 955.615 917.361 956.319 886.808C956.631 873.835 956.034 872.267 948.789 865.762L940.935 858.735H871.411H801.888L794.571 864.893C785.01 872.938 783.265 883.13 788.163 902.338C801.576 954.948 858.291 983.163 906.376 961.149V961.149ZM577.852 776.856C401.298 760.191 303.912 695.848 311.673 600.993C313.86 574.175 326.574 556.407 347.68 550.644C361.795 546.792 400.387 549.479 430.761 556.459C447.725 560.35 455.94 561.324 456.608 559.523C457.147 558.074 466.132 497.281 476.571 424.426C497.256 280.119 497.267 280.07 515.274 263.802C527.863 252.429 533.783 250.247 552.037 250.247C565.279 250.247 570.745 252.065 605.391 267.97C649.875 288.396 663.08 292.168 689.685 292.06C726.667 291.775 752.096 282.104 792.531 252.4C825.272 228.352 834.623 223.912 852.703 223.844C874.795 223.844 893.185 234.334 902.416 252.428C904.888 257.266 925.516 318.006 948.266 387.41C971.014 456.811 990 513.995 990.455 514.483C990.909 514.965 1001.35 511.282 1013.65 506.288C1070.98 483.007 1103.64 480.175 1123.36 496.77C1138.65 509.635 1146.79 546.503 1140.75 575.556C1139.16 583.177 1133.95 597.247 1129.17 606.822C1117.92 629.328 1085.24 662.745 1055.76 681.876C987.793 725.996 882.41 758.844 761.836 773.493C725.02 777.967 611.589 780.041 577.852 776.856V776.856ZM752.695 640.986C816.941 632.643 895.98 607.299 962.997 573.55L979.137 565.421L973.388 546.724C964.168 516.725 961.109 508.782 958.805 508.865C957.612 508.865 938.787 517.764 916.96 528.547C836.157 568.46 768.077 585.029 684.876 585.029C626.082 585.029 566.794 575.127 509.437 555.732C497.603 551.729 487.215 549.269 486.354 550.266C484.337 552.595 476.122 608.677 477.574 610.129C479.477 612.032 542.563 627.382 569.748 632.552C633.206 644.619 700.724 647.732 752.695 640.986V640.986Z" fill="white"/>
</svg>
